<?xml version="1.0" standalone="no"?>
<!DOCTYPE svg PUBLIC "-//W3C//DTD SVG 20010904//EN"
 "http://www.w3.org/TR/2001/REC-SVG-20010904/DTD/svg10.dtd">
<svg version="1.0" xmlns="http://www.w3.org/2000/svg"
 width="16.000000pt" height="16.000000pt" viewBox="0 0 16.000000 16.000000"
 preserveAspectRatio="xMidYMid meet">
<metadata>
Created by potrace 1.11, written by Peter Selinger 2001-2013
</metadata>
<g transform="translate(0.000000,16.000000) scale(0.006154,-0.006154)"
fill="#000000" stroke="none">
<path d="M1125 2589 c-154 -21 -351 -89 -479 -166 -326 -196 -543 -502 -623
-876 -24 -114 -24 -380 0 -494 58 -271 168 -475 362 -668 193 -194 397 -304
668 -362 114 -24 380 -24 494 0 271 58 475 168 668 362 194 193 304 397 362
668 24 114 24 380 0 494 -58 271 -168 475 -362 668 -192 193 -399 305 -663
360 -92 20 -330 28 -427 14z m254 -610 c89 -14 175 -44 244 -84 l57 -34 0 39
0 40 145 0 145 0 0 -640 0 -640 -145 0 -145 0 0 40 0 39 -57 -34 c-125 -73
-287 -106 -429 -86 -164 23 -285 82 -399 196 -82 82 -135 168 -172 280 -23 69
-27 96 -27 205 0 108 4 136 27 205 108 326 429 528 756 474z"/>
<path d="M1183 1690 c-107 -25 -221 -121 -271 -227 -24 -52 -27 -70 -27 -163
0 -93 3 -111 27 -163 63 -134 193 -224 337 -234 174 -12 318 74 395 236 28 60
31 75 31 161 0 86 -3 101 -31 161 -54 114 -141 190 -253 223 -57 17 -153 19
-208 6z"/>
</g>
</svg>
